<svg width="16" height="16" viewBox="0 0 16 16" fill="none" xmlns="http://www.w3.org/2000/svg">
<path d="M15.8698 7.68401L11.3027 3.11693C11.1286 2.94279 10.8493 2.94279 10.6751 3.11693C10.501 3.29107 10.501 3.57036 10.6751 3.7445L14.4865 7.55587H0.443566C0.19714 7.55587 0 7.75301 0 7.99944C0 8.24586 0.19714 8.443 0.443566 8.443H14.4865L10.6751 12.2544C10.501 12.4285 10.501 12.7078 10.6751 12.8819C10.7606 12.9674 10.8756 13.0134 10.9873 13.0134C11.099 13.0134 11.214 12.9707 11.2994 12.8819L15.8665 8.31486C16.0439 8.13744 16.0439 7.85487 15.8698 7.68401Z"/>
</svg>
