<svg width="30" height="30" viewBox="0 0 30 30" fill="none" xmlns="http://www.w3.org/2000/svg">
<path d="M26.1426 19.0113C28.6014 17.225 30.0001 14.6512 30.0001 11.875C30.0001 6.70498 25.0939 2.5 19.0626 2.5C14.1951 2.5 9.98761 5.18377 8.59009 9.17752C8.47636 9.50377 8.64757 9.86002 8.97382 9.97375C9.30007 10.0875 9.65509 9.91498 9.77005 9.59002C10.9726 6.15121 14.7939 3.74998 19.0626 3.74998C24.4038 3.74998 28.7501 7.39498 28.7501 11.875C28.7501 14.39 27.3826 16.725 24.9989 18.2825C24.7326 18.4563 24.6401 18.8013 24.7814 19.085L25.3926 20.3088L23.6238 19.2975C23.4601 19.2037 23.2651 19.1913 23.0888 19.2562C22.2326 19.5862 21.3076 19.81 20.3426 19.92C20.0001 19.9587 19.7538 20.2687 19.7926 20.6112C19.8313 20.9537 20.1288 21.2025 20.4838 21.1612C21.4501 21.0525 22.3813 20.8387 23.2563 20.5275L26.5638 22.4175C26.6613 22.4737 26.7675 22.5 26.8738 22.5C27.0301 22.5 27.185 22.4412 27.3038 22.3287C27.5038 22.14 27.5576 21.8412 27.4338 21.5949L26.1426 19.0113Z" fill="#160B56"/>
<path d="M9.375 11.2485C4.20498 11.2485 0 14.6123 0 18.7485C0 20.9773 1.25877 23.1011 3.39375 24.5186L2.54373 26.6423C2.44746 26.8835 2.50998 27.1586 2.70123 27.3348C2.81871 27.4436 2.97 27.4998 3.12375 27.4998C3.21873 27.4998 3.315 27.4785 3.405 27.4335L6.50373 25.8836C7.44375 26.1261 8.40873 26.2485 9.375 26.2485C14.545 26.2485 18.75 22.8848 18.75 18.7485C18.75 14.6123 14.545 11.2485 9.375 11.2485ZM9.37248 24.9998C8.43873 24.9998 7.5075 24.8711 6.60375 24.6173C6.45375 24.576 6.29373 24.5898 6.15498 24.6598L4.31373 25.5797L4.7475 24.4972C4.86252 24.2097 4.75002 23.8822 4.48248 23.726C2.42748 22.526 1.24875 20.7122 1.24875 18.7498C1.24875 15.3035 4.89375 12.4997 9.37377 12.4997C13.8538 12.4997 17.4975 15.3035 17.4975 18.7498C17.4975 22.196 13.8525 24.9998 9.37248 24.9998Z" fill="#160B56"/>
</svg>
