<svg width="30" height="30" viewBox="0 0 30 30" fill="none" xmlns="http://www.w3.org/2000/svg">
<path d="M15 0C6.72915 0 0 6.72915 0 15C0 23.2708 6.72915 29.9999 15 29.9999C23.2708 29.9999 29.9999 23.2708 29.9999 15C29.9999 6.72915 23.2709 0 15 0ZM15 28.6956C7.4478 28.6956 1.30433 22.5521 1.30433 15C1.30433 7.4478 7.4478 1.30433 15 1.30433C22.5521 1.30433 28.6956 7.4478 28.6956 15C28.6956 22.5521 22.5521 28.6956 15 28.6956Z" fill="#160B56"/>
<path d="M21.3313 20.4092L15.6522 14.73V4.56528C15.6522 4.20528 15.36 3.91309 15 3.91309C14.64 3.91309 14.3478 4.20528 14.3478 4.56528V15.0001C14.3478 15.1735 14.4169 15.3392 14.5382 15.4618L20.4078 21.3314C20.5356 21.4579 20.7025 21.5218 20.8695 21.5218C21.0365 21.5218 21.2034 21.4579 21.3313 21.3314C21.5856 21.077 21.5856 20.6635 21.3313 20.4092Z" fill="#160B56"/>
</svg>
