<svg width="30" height="30" viewBox="0 0 30 30" fill="none" xmlns="http://www.w3.org/2000/svg">
<path d="M29.9448 7.1141C29.8415 6.73013 29.5896 6.40279 29.2449 6.20434C28.9 6.00491 28.49 5.95096 28.1052 6.05422C27.721 6.15772 27.3937 6.40938 27.1952 6.75405L26.9453 7.18903C26.7078 7.05258 26.4044 7.13289 26.2655 7.36918L24.9957 9.53361L24.5607 9.28365C24.4455 9.21701 24.3083 9.19895 24.1799 9.23361C24.0513 9.26851 23.9419 9.35297 23.8757 9.46868C23.7403 9.70765 23.8228 10.0113 24.0608 10.1485L24.4958 10.3984L20.2465 17.7622L19.1966 20.5669L18.6967 21.5015C18.404 22.0107 18.4353 22.6437 18.7768 23.1214L17.652 24.501L17.3371 23.7114C17.195 23.3594 16.8662 23.1182 16.4881 23.0887C16.1097 23.0589 15.7472 23.2459 15.5522 23.5713L15.3723 23.8761L15.2024 21.8765C15.1634 21.4034 14.797 21.0231 14.3259 20.966C13.8545 20.9091 13.4083 21.1915 13.2577 21.6417L12.0279 25.331C11.942 25.5919 12.0826 25.8731 12.3428 25.961C12.3916 25.9837 12.4441 25.9974 12.4978 26.0008C12.7126 26.0015 12.904 25.8646 12.9728 25.661L14.1975 21.9717L14.3725 24.0011C14.4086 24.4341 14.7198 24.7942 15.1431 24.8923C15.5664 24.9904 16.0043 24.804 16.2271 24.4312L16.4122 24.1261L16.7222 24.9111C16.8537 25.2419 17.1513 25.4779 17.5035 25.5304C17.8558 25.5829 18.2092 25.444 18.4318 25.166L19.5967 23.6913C19.7256 23.725 19.8584 23.7419 19.9916 23.7414C20.5274 23.7455 21.0249 23.4634 21.2964 23.0013L21.7963 22.1665L23.701 19.8519L27.9952 12.3981L28.4301 12.6481C28.5461 12.7145 28.6306 12.8241 28.665 12.9532C28.6996 13.0813 28.6816 13.218 28.6152 13.333L26.6155 16.7975C26.5401 16.9113 26.5145 17.0509 26.5447 17.1842C26.575 17.3172 26.6582 17.4322 26.7754 17.5022C26.8906 17.5691 27.0278 17.5872 27.1562 17.5525C27.2848 17.5176 27.3942 17.4331 27.4603 17.3174L29.46 13.8529C29.6594 13.508 29.7134 13.0979 29.6099 12.7132C29.5064 12.329 29.2547 12.0017 28.91 11.8032L28.4751 11.5533L29.7248 9.38861C29.8613 9.1511 29.781 8.84793 29.5449 8.7088L29.7949 8.27381C29.9997 7.92353 30.0539 7.50514 29.9448 7.1141ZM28.0601 7.25396C28.1262 7.13826 28.2361 7.05356 28.3652 7.01914C28.4936 6.98741 28.6293 7.00523 28.745 7.06918C28.861 7.13533 28.9454 7.24518 28.9801 7.37406C29.0118 7.50246 28.994 7.63818 28.9301 7.75388L28.6801 8.18886L27.8101 7.68895L28.0601 7.25396ZM21.2463 21.2118L20.9964 21.0668L20.2565 20.6367L20.9663 18.7371L22.541 19.6469L21.2463 21.2118ZM19.7466 22.6564C19.5354 22.5092 19.4705 22.226 19.5967 22.0015L19.8466 21.5667L20.7164 22.0666L20.4664 22.4965C20.3964 22.618 20.2787 22.7045 20.1418 22.735C20.0048 22.7652 19.8615 22.7369 19.7466 22.6564ZM23.111 18.8272L21.3813 17.8274L25.3806 10.8984L27.1103 11.8982L23.111 18.8272ZM27.6102 11.0334L25.8805 10.0335L26.8804 8.30383L28.61 9.30366L27.6102 11.0334Z" fill="#160B56"/>
<path d="M7.88853 22.4063L6.11906 24.1712L5.05918 23.1113C4.86414 22.9175 4.54926 22.9175 4.35422 23.1113C4.25951 23.2053 4.2063 23.3329 4.2063 23.4662C4.2063 23.5995 4.25951 23.7274 4.35422 23.8211L5.4141 24.881C5.60157 25.067 5.85494 25.1712 6.11906 25.171C6.38464 25.1725 6.64021 25.0682 6.82889 24.881L8.59348 23.1113C8.76338 22.9128 8.7519 22.6172 8.56737 22.4327C8.38258 22.2479 8.08698 22.2364 7.88853 22.4063Z" fill="#160B56"/>
<path d="M1.99976 23.7511C1.99976 26.0981 3.90226 28.0004 6.24903 28.0004C8.5958 28.0004 10.4983 26.0981 10.4983 23.7511C10.4983 23.475 10.2745 23.2512 9.99839 23.2512C9.72232 23.2512 9.49848 23.475 9.49848 23.7511C9.49848 25.5457 8.04365 27.0006 6.24903 27.0006C4.45442 27.0006 2.99959 25.5457 2.99959 23.7511C2.99959 21.9565 4.45442 20.5016 6.24903 20.5016C6.95253 20.4997 7.63722 20.7279 8.19865 21.1517C8.41956 21.3174 8.73299 21.2725 8.89848 21.0516C9.06423 20.8307 9.01956 20.5175 8.79865 20.3518C7.51103 19.3861 5.78817 19.2309 4.34872 19.9505C2.90903 20.6703 1.99976 22.1418 1.99976 23.7511Z" fill="#160B56"/>
<path d="M17.997 4.00422C18.2731 4.00422 18.4969 3.78063 18.4969 3.50431C18.4969 3.22823 18.2731 3.00439 17.997 3.00439H4.99918C4.72311 3.00439 4.49927 3.22823 4.49927 3.50431V5.50397C4.49927 5.78029 4.72311 6.00388 4.99918 6.00388H17.997C18.2731 6.00388 18.4969 5.78029 18.4969 5.50397C18.4969 5.22789 18.2731 5.00405 17.997 5.00405H5.4991V4.00422H17.997Z" fill="#160B56"/>
<path d="M6.49894 7.00391C6.22286 7.00391 5.99902 7.22774 5.99902 7.50382C5.99902 7.78013 6.22286 8.00373 6.49894 8.00373H16.4972C16.7733 8.00373 16.9972 7.78013 16.9972 7.50382C16.9972 7.22774 16.7733 7.00391 16.4972 7.00391H6.49894Z" fill="#160B56"/>
<path d="M19.4968 10.5034H8.49869C8.22262 10.5034 7.99878 10.7273 7.99878 11.0033C7.99878 11.2797 8.22262 11.5033 8.49869 11.5033H19.4968C19.7729 11.5033 19.9967 11.2797 19.9967 11.0033C19.9967 10.7273 19.7729 10.5034 19.4968 10.5034Z" fill="#160B56"/>
<path d="M14.4976 14.0028C14.4976 13.7268 14.2738 13.5029 13.9977 13.5029H3.99943C3.72335 13.5029 3.49951 13.7268 3.49951 14.0028C3.49951 14.2792 3.72335 14.5028 3.99943 14.5028H13.9977C14.2738 14.5028 14.4976 14.2792 14.4976 14.0028Z" fill="#160B56"/>
<path d="M19.4966 13.5029H15.9972C15.7212 13.5029 15.4973 13.7268 15.4973 14.0028C15.4973 14.2792 15.7212 14.5028 15.9972 14.5028H19.4966C19.7727 14.5028 19.9965 14.2792 19.9965 14.0028C19.9965 13.7268 19.7727 13.5029 19.4966 13.5029Z" fill="#160B56"/>
<path d="M8.99857 17.0023C9.27465 17.0023 9.49849 16.7787 9.49849 16.5024C9.49849 16.2263 9.27465 16.0024 8.99857 16.0024H3.99943C3.72335 16.0024 3.49951 16.2263 3.49951 16.5024C3.49951 16.7787 3.72335 17.0023 3.99943 17.0023H8.99857Z" fill="#160B56"/>
<path d="M10.998 17.0023H14.4974C14.7734 17.0023 14.9973 16.7787 14.9973 16.5024C14.9973 16.2263 14.7734 16.0024 14.4974 16.0024H10.998C10.7219 16.0024 10.498 16.2263 10.498 16.5024C10.498 16.7787 10.7219 17.0023 10.998 17.0023Z" fill="#160B56"/>
<path d="M22.4962 23.001C22.2201 23.001 21.9963 23.2248 21.9963 23.5009V28.5C21.9963 28.7763 21.7724 28.9999 21.4963 28.9999H1.49974C1.22367 28.9999 0.99983 28.7763 0.99983 28.5V1.50463C0.99983 1.22855 1.22367 1.00471 1.49974 1.00471H21.4963C21.7724 1.00471 21.9963 1.22855 21.9963 1.50463V10.8932C21.9963 11.1692 22.2201 11.3931 22.4962 11.3931C22.7722 11.3931 22.9961 11.1692 22.9961 10.8932V1.50463C22.9961 0.676399 22.3246 0.00488281 21.4963 0.00488281H1.49974C0.671516 0.00488281 0 0.676399 0 1.50463V28.5C0 29.3285 0.671516 29.9998 1.49974 29.9998H21.4963C22.3246 29.9998 22.9961 29.3285 22.9961 28.5V23.5009C22.9961 23.2248 22.7722 23.001 22.4962 23.001Z" fill="#160B56"/>
</svg>
