<svg width="30" height="30" viewBox="0 0 30 30" fill="none" xmlns="http://www.w3.org/2000/svg">
<path d="M21.6316 12H21C20.7384 12 20.5264 12.2121 20.5264 12.4737C20.5264 12.7353 20.7384 12.9473 21 12.9473H21.6316C21.8933 12.9473 22.1053 12.7353 22.1053 12.4737C22.1053 12.2121 21.8932 12 21.6316 12Z" fill="#160B56"/>
<path d="M18.3161 15C18.3161 14.7384 18.1041 14.5264 17.8424 14.5264H7.7371C7.47542 14.5264 7.26343 14.7384 7.26343 15C7.26343 15.2617 7.47542 15.4737 7.7371 15.4737H17.8423C18.104 15.4737 18.3161 15.2617 18.3161 15Z" fill="#160B56"/>
<path d="M7.7371 24C7.47542 24 7.26343 24.212 7.26343 24.4737C7.26343 24.7353 7.47542 24.9473 7.7371 24.9473H10.2634C10.5251 24.9473 10.7371 24.7353 10.7371 24.4737C10.7371 24.212 10.5251 24 10.2634 24H7.7371Z" fill="#160B56"/>
<path d="M20.2423 25.5158C20.5685 25.9509 21.088 26.2106 21.6318 26.2106C22.1756 26.2106 22.695 25.9509 23.0213 25.5158L29.6528 16.6737C30.2275 15.9076 30.0716 14.8168 29.3054 14.2421C28.5392 13.6676 27.4484 13.8234 26.8739 14.5896L26.5264 15.0528V1.73684C26.5265 0.77918 25.7473 0 24.7896 0H4.57923C3.62146 0 2.84233 0.77918 2.84233 1.73684V1.89475H1.73708C0.779365 1.89475 0.000244141 2.67393 0.000244141 3.63158V26.3684C0.000244141 27.3261 0.779365 28.1053 1.73708 28.1053H2.84233V28.2632C2.84233 29.2208 3.62146 30 4.57917 30H24.7896C25.7472 30 26.5264 29.2208 26.5264 28.2632V23.2105C26.5264 22.9488 26.3144 22.7368 26.0527 22.7368C25.791 22.7368 25.5791 22.9488 25.5791 23.2105V28.2632C25.5791 28.6985 25.2249 29.0527 24.7896 29.0527H4.57923C4.14388 29.0527 3.78974 28.6985 3.78974 28.2632V8.05266C3.78974 7.79098 3.57769 7.57898 3.31606 7.57898C3.05444 7.57898 2.84239 7.79104 2.84239 8.05266V27.1579H1.73708C1.30173 27.1579 0.947588 26.8038 0.947588 26.3684V3.63158C0.947588 3.19623 1.30173 2.84209 1.73708 2.84209H2.84233V6.15785C2.84233 6.41953 3.05438 6.63152 3.31601 6.63152C3.57763 6.63152 3.78968 6.41947 3.78968 6.15785V1.73684C3.78968 1.30148 4.14382 0.947344 4.57917 0.947344H24.7896C25.2249 0.947344 25.5791 1.30148 25.5791 1.73684V16.2632C25.5791 16.2799 25.5799 16.2963 25.5816 16.3126L21.6318 21.579L20.1792 19.6421C19.9009 19.271 19.4946 19.0304 19.0354 18.9649C18.5759 18.8992 18.1187 19.0165 17.7476 19.2948C17.3765 19.5731 17.1359 19.9794 17.0704 20.4387C17.0047 20.898 17.122 21.3553 17.4003 21.7264L20.2423 25.5158ZM18.0082 20.5726C18.038 20.364 18.1474 20.1793 18.3161 20.0527C18.4542 19.9491 18.6185 19.8946 18.788 19.8946C18.8256 19.8946 18.8634 19.8973 18.9014 19.9027C19.1101 19.9326 19.2948 20.0419 19.4213 20.2106L21.2528 22.6528C21.3423 22.7721 21.4828 22.8422 21.6318 22.8422C21.7808 22.8422 21.9213 22.7721 22.0107 22.6528L27.6318 15.158C27.8929 14.8096 28.3888 14.7389 28.737 15.0001C29.0852 15.2613 29.1561 15.7571 28.8949 16.1053L22.2634 24.9475C22.2634 24.9475 22.2634 24.9475 22.2634 24.9475C22.115 25.1452 21.879 25.2632 21.6318 25.2632C21.3846 25.2632 21.1485 25.1452 21.0002 24.9475L18.1582 21.158C18.0316 20.9893 17.9783 20.7814 18.0082 20.5726Z" fill="#160B56"/>
<path d="M15.1582 21.9473C15.1582 21.6856 14.9462 21.4736 14.6845 21.4736H7.7371C7.47542 21.4736 7.26343 21.6857 7.26343 21.9473C7.26343 22.2089 7.47542 22.421 7.7371 22.421H14.6845C14.9461 22.421 15.1582 22.209 15.1582 21.9473Z" fill="#160B56"/>
<path d="M11.2107 8.21045C10.9491 8.21045 10.7371 8.42244 10.7371 8.68412C10.7371 8.9458 10.9491 9.15779 11.2107 9.15779H18.1581C18.4198 9.15779 18.6318 8.9458 18.6318 8.68412C18.6318 8.42244 18.4198 8.21045 18.1581 8.21045H11.2107Z" fill="#160B56"/>
<path d="M7.7371 12.9473H17.8424C18.104 12.9473 18.316 12.7353 18.316 12.4737C18.316 12.2121 18.104 12 17.8424 12H7.7371C7.47542 12 7.26343 12.2121 7.26343 12.4737C7.26343 12.7353 7.47548 12.9473 7.7371 12.9473Z" fill="#160B56"/>
<path d="M21.6318 5.68408H7.7371C7.47542 5.68408 7.26343 5.89607 7.26343 6.15775C7.26343 6.41943 7.47542 6.63143 7.7371 6.63143H21.6318C21.8935 6.63143 22.1054 6.41943 22.1054 6.15775C22.1054 5.89607 21.8934 5.68408 21.6318 5.68408Z" fill="#160B56"/>
<path d="M21.6316 14.5264H21C20.7384 14.5264 20.5264 14.7384 20.5264 15C20.5264 15.2617 20.7384 15.4737 21 15.4737H21.6316C21.8933 15.4737 22.1053 15.2616 22.1053 15C22.1053 14.7384 21.8932 14.5264 21.6316 14.5264Z" fill="#160B56"/>
</svg>
