<svg width="20" height="21" viewBox="0 0 20 21" fill="none" xmlns="http://www.w3.org/2000/svg">
<g clip-path="url(#clip0_33:120)">
<path d="M16.9452 4.75559L13.1787 1.19223C12.7781 0.813203 12.2537 0.604492 11.7022 0.604492H4.53125C3.3466 0.604492 2.38281 1.56828 2.38281 2.75293V18.4561C2.38281 19.6407 3.3466 20.6045 4.53125 20.6045H15.4688C16.6534 20.6045 17.6172 19.6407 17.6172 18.4561V6.31629C17.6172 5.72844 17.3723 5.15957 16.9452 4.75559ZM15.8071 5.29199H12.8906C12.7829 5.29199 12.6953 5.20437 12.6953 5.09668V2.34809L15.8071 5.29199ZM15.4688 19.4326H4.53125C3.99277 19.4326 3.55469 18.9945 3.55469 18.4561V2.75293C3.55469 2.21445 3.99277 1.77637 4.53125 1.77637H11.5234V5.09668C11.5234 5.85055 12.1368 6.46387 12.8906 6.46387H16.4453V18.4561C16.4453 18.9945 16.0072 19.4326 15.4688 19.4326Z" fill="#160B56"/>
<path d="M14.1797 8.41699H5.58594C5.26234 8.41699 5 8.67934 5 9.00293C5 9.32652 5.26234 9.58887 5.58594 9.58887H14.1797C14.5033 9.58887 14.7656 9.32652 14.7656 9.00293C14.7656 8.67934 14.5033 8.41699 14.1797 8.41699Z" fill="#160B56"/>
<path d="M14.1797 11.542H5.58594C5.26234 11.542 5 11.8043 5 12.1279C5 12.4515 5.26234 12.7139 5.58594 12.7139H14.1797C14.5033 12.7139 14.7656 12.4515 14.7656 12.1279C14.7656 11.8043 14.5033 11.542 14.1797 11.542Z" fill="#160B56"/>
<path d="M8.42656 14.667H5.58594C5.26234 14.667 5 14.9293 5 15.2529C5 15.5765 5.26234 15.8389 5.58594 15.8389H8.42656C8.75016 15.8389 9.0125 15.5765 9.0125 15.2529C9.0125 14.9293 8.75016 14.667 8.42656 14.667Z" fill="#160B56"/>
</g>
<defs>
<clipPath id="clip0_33:120">
<rect width="20" height="20" fill="white" transform="translate(0 0.604492)"/>
</clipPath>
</defs>
</svg>
