<svg width="16" height="21" viewBox="0 0 16 21" fill="none" xmlns="http://www.w3.org/2000/svg">
<path d="M14.9452 4.75559L11.1787 1.19223C10.7781 0.813203 10.2537 0.604492 9.70223 0.604492H2.53125C1.3466 0.604492 0.382812 1.56828 0.382812 2.75293V18.4561C0.382812 19.6407 1.3466 20.6045 2.53125 20.6045H13.4688C14.6534 20.6045 15.6172 19.6407 15.6172 18.4561V6.31629C15.6172 5.72844 15.3723 5.15957 14.9452 4.75559V4.75559ZM13.8071 5.29199H10.8906C10.7829 5.29199 10.6953 5.20437 10.6953 5.09668V2.34809L13.8071 5.29199ZM13.4688 19.4326H2.53125C1.99277 19.4326 1.55469 18.9945 1.55469 18.4561V2.75293C1.55469 2.21445 1.99277 1.77637 2.53125 1.77637H9.52344V5.09668C9.52344 5.85055 10.1368 6.46387 10.8906 6.46387H14.4453V18.4561C14.4453 18.9945 14.0072 19.4326 13.4688 19.4326Z" fill="#160B56"/>
<path d="M12.1797 8.41699H3.58594C3.26234 8.41699 3 8.67934 3 9.00293C3 9.32652 3.26234 9.58887 3.58594 9.58887H12.1797C12.5033 9.58887 12.7656 9.32652 12.7656 9.00293C12.7656 8.67934 12.5033 8.41699 12.1797 8.41699Z" fill="#160B56"/>
<path d="M12.1797 11.542H3.58594C3.26234 11.542 3 11.8043 3 12.1279C3 12.4515 3.26234 12.7139 3.58594 12.7139H12.1797C12.5033 12.7139 12.7656 12.4515 12.7656 12.1279C12.7656 11.8043 12.5033 11.542 12.1797 11.542Z" fill="#160B56"/>
<path d="M6.42656 14.667H3.58594C3.26234 14.667 3 14.9293 3 15.2529C3 15.5765 3.26234 15.8389 3.58594 15.8389H6.42656C6.75016 15.8389 7.0125 15.5765 7.0125 15.2529C7.0125 14.9293 6.75016 14.667 6.42656 14.667Z" fill="#160B56"/>
</svg>
