<svg width="30" height="30" viewBox="0 0 30 30" fill="none" xmlns="http://www.w3.org/2000/svg">
<g clip-path="url(#clip0_33:14)">
<path d="M4.43909 8.63672H11.1829C11.4256 8.63672 11.6223 8.43996 11.6223 8.19727C11.6223 7.95457 11.4256 7.75781 11.1829 7.75781H4.43909C4.19639 7.75781 3.99963 7.95457 3.99963 8.19727C3.99963 8.43996 4.19639 8.63672 4.43909 8.63672Z" fill="#160B56"/>
<path d="M4.43909 18.3047C4.19639 18.3047 3.99963 18.5014 3.99963 18.7441C3.99963 18.9868 4.19639 19.1836 4.43909 19.1836H11.7688C12.0115 19.1836 12.2083 18.9868 12.2083 18.7441C12.2083 18.5014 12.0115 18.3047 11.7688 18.3047H4.43909Z" fill="#160B56"/>
<path d="M17.5935 12.1523C17.8362 12.1523 18.0329 11.9556 18.0329 11.7129C18.0329 11.4702 17.8362 11.2734 17.5935 11.2734H12.7734C12.5307 11.2734 12.334 11.4702 12.334 11.7129C12.334 11.9556 12.5307 12.1523 12.7734 12.1523H17.5935Z" fill="#160B56"/>
<path d="M4.32056 12.1523H10.7226C10.9653 12.1523 11.1621 11.9556 11.1621 11.7129C11.1621 11.4702 10.9653 11.2734 10.7226 11.2734H4.32056C4.07786 11.2734 3.8811 11.4702 3.8811 11.7129C3.8811 11.9556 4.07786 12.1523 4.32056 12.1523Z" fill="#160B56"/>
<path d="M4.32056 15.668H14.6308C14.8735 15.668 15.0702 15.4712 15.0702 15.2285C15.0702 14.9858 14.8735 14.7891 14.6308 14.7891H4.32056C4.07786 14.7891 3.8811 14.9858 3.8811 15.2285C3.8811 15.4712 4.07786 15.668 4.32056 15.668Z" fill="#160B56"/>
<path d="M4.32056 22.6992H12.873C13.1157 22.6992 13.3124 22.5025 13.3124 22.2598C13.3124 22.0171 13.1157 21.8203 12.873 21.8203H4.32056C4.07786 21.8203 3.8811 22.0171 3.8811 22.2598C3.8811 22.5025 4.07786 22.6992 4.32056 22.6992Z" fill="#160B56"/>
<path d="M29.9954 25.2316C29.9663 24.8255 29.78 24.2278 29.0582 23.6842L25.2381 20.6642L26.1066 19.7962C26.2734 19.8759 26.4604 19.9193 26.6576 19.9194H26.6582C27.0751 19.9194 27.4992 19.7334 27.8218 19.4092C27.8228 19.4082 27.8238 19.4071 27.8248 19.4061C28.4261 18.7989 28.4963 17.8838 27.9805 17.3642L23.5044 12.8644C23.1043 12.4489 22.4195 12.4183 21.9139 12.6921V8.87764C21.9139 8.29088 21.6832 7.73916 21.2642 7.3242L14.5212 0.645566C14.1025 0.23084 13.5457 0.00244141 12.9533 0.00244141H2.80963C1.26041 0.00244141 0 1.25043 0 2.78436V4.41356C0 4.65625 0.196758 4.85301 0.439453 4.85301C0.682148 4.85301 0.878906 4.65625 0.878906 4.41356V2.78436C0.878906 1.735 1.74504 0.881289 2.80963 0.881289L13.2517 0.916211V6.56377C13.2517 7.68127 14.1676 8.59041 15.2935 8.59041H21.0023L21.0352 13.7205C20.9203 14.0788 20.9363 14.4534 21.089 14.7633L17.1208 18.7295C16.5973 18.4761 15.8925 18.6119 15.3947 19.1073C14.8327 19.6476 14.6723 20.5942 15.2333 21.1529L19.7223 25.6411C20.0616 25.9833 20.5814 26.0614 21.0352 25.9219C21.0724 26.506 20.9067 27.0906 20.4749 27.5059C20.1055 27.8727 19.6143 28.0748 19.0886 28.0688L18.1887 28.0623C17.9846 27.6569 17.6145 27.349 17.1679 27.2286V26.8566C17.1679 25.9681 16.4451 25.2453 15.5566 25.2453H10.1457C9.25717 25.2453 8.53436 25.9681 8.53436 26.8566V27.2286C8.11242 27.3424 7.75869 27.6235 7.54875 27.9963H2.80963C1.74504 27.9963 0.878906 27.1425 0.878906 26.0932V6.46281C0.878906 6.22012 0.682148 6.02336 0.439453 6.02336C0.196758 6.02336 0 6.22012 0 6.46281V26.0932C0 27.6272 1.26041 28.8752 2.80963 28.8752H7.34215V29.2648C7.34215 29.6687 7.67068 29.9972 8.07457 29.9972H10.0781C10.3208 29.9972 10.5176 29.8005 10.5176 29.5578C10.5176 29.3151 10.3208 29.1183 10.0781 29.1183H8.22106V28.7843C8.22106 28.3804 8.54959 28.0519 8.95348 28.0519H16.7489C17.1528 28.0519 17.4813 28.3804 17.4813 28.7843V29.1183H12.1289C11.8862 29.1183 11.6895 29.3151 11.6895 29.5578C11.6895 29.8005 11.8862 29.9972 12.1289 29.9972H17.6278C18.0317 29.9972 18.3602 29.6687 18.3602 29.2648V28.9425C18.386 28.9426 19.0779 28.9478 19.1034 28.9477C19.856 28.9477 20.5624 28.6576 21.0942 28.1295C21.6229 27.6046 21.9141 26.9073 21.9141 26.1663V25.3122C22.2646 24.8652 22.3914 24.2576 22.1462 23.7546L22.9898 22.9114L26.0038 26.7433C27.0845 28.0566 28.1845 27.9245 29.2638 26.9493C29.778 26.4339 30.0379 25.8238 29.9954 25.2316ZM10.1457 26.1242H15.5566C15.9605 26.1242 16.2891 26.4527 16.2891 26.8566V27.173H9.41332V26.8566C9.41332 26.4527 9.74186 26.1242 10.1457 26.1242ZM22.0871 13.6422C22.3169 13.4307 22.6225 13.2813 22.881 13.4839L27.3572 17.9837C27.5282 18.156 27.4543 18.5323 27.199 18.789C26.9626 19.0117 26.615 19.1669 26.3693 18.9122L24.7113 17.2454C24.5402 17.0734 24.2619 17.0726 24.0899 17.2438C23.9178 17.4149 23.9171 17.6932 24.0882 17.8652L25.4379 19.2221C24.2746 20.3836 22.7338 21.9246 21.5708 23.0872L17.7881 19.3052L21.6656 15.4297L22.6303 16.3996C22.8014 16.5716 23.0797 16.5724 23.2517 16.4012C23.4238 16.23 23.4245 15.9518 23.2533 15.7797L21.9772 14.4969C21.7439 14.3132 21.8123 13.9265 22.0871 13.6422ZM14.1306 6.56383V1.49564L20.4064 7.71156H15.2935C14.6522 7.71156 14.1306 7.1967 14.1306 6.56383ZM20.3435 25.0192L15.8545 20.531C15.6527 20.272 15.8003 19.9652 16.0105 19.7344C16.2896 19.4608 16.675 19.3888 16.8558 19.6158L21.3019 24.061C21.5044 24.3207 21.3549 24.6299 21.1433 24.8602C20.888 25.1154 20.5141 25.1896 20.3435 25.0192ZM28.6415 26.3287C27.9761 26.994 27.2563 26.9759 26.6979 26.2042L23.6159 22.2858L24.6122 21.2899L28.5173 24.3771C29.288 24.9374 29.3057 25.6615 28.6415 26.3287Z" fill="#160B56"/>
</g>
<defs>
<clipPath id="clip0_33:14">
<rect width="30" height="30" fill="white"/>
</clipPath>
</defs>
</svg>
