<svg width="20" height="21" viewBox="0 0 20 21" fill="none" xmlns="http://www.w3.org/2000/svg">
<g clip-path="url(#clip0_33:132)">
<path d="M10 0.604492C5.86375 0.604492 2.5 3.96824 2.5 8.10449C2.5 13.3032 9.27 20.1332 9.5575 20.422C9.68 20.5432 9.84 20.6045 10 20.6045C10.16 20.6045 10.32 20.5432 10.4425 20.422C10.73 20.1332 17.5 13.3032 17.5 8.10449C17.5 3.96824 14.1362 0.604492 10 0.604492ZM10 19.0757C8.5075 17.4782 3.75 12.0757 3.75 8.10449C3.75 4.65824 6.55375 1.85449 10 1.85449C13.4462 1.85449 16.25 4.65824 16.25 8.10449C16.25 12.072 11.4925 17.4782 10 19.0757Z" fill="#160B56"/>
<path d="M10 4.35449C7.9325 4.35449 6.25 6.03699 6.25 8.10449C6.25 10.172 7.9325 11.8545 10 11.8545C12.0675 11.8545 13.75 10.172 13.75 8.10449C13.75 6.03699 12.0675 4.35449 10 4.35449ZM10 10.6045C8.62125 10.6045 7.5 9.48324 7.5 8.10449C7.5 6.72574 8.62125 5.60449 10 5.60449C11.3787 5.60449 12.5 6.72574 12.5 8.10449C12.5 9.48324 11.3787 10.6045 10 10.6045Z" fill="#160B56"/>
</g>
<defs>
<clipPath id="clip0_33:132">
<rect width="20" height="20" fill="white" transform="translate(0 0.604492)"/>
</clipPath>
</defs>
</svg>
