<svg width="20" height="21" viewBox="0 0 20 21" fill="none" xmlns="http://www.w3.org/2000/svg">
<g clip-path="url(#clip0_33:141)">
<path d="M18.125 3.10449H1.87501C0.841067 3.10449 0 3.94556 0 4.97951V16.2295C0 17.2634 0.841067 18.1045 1.87501 18.1045H18.125C19.1589 18.1045 20 17.2634 20 16.2295V4.97951C20 3.94556 19.1589 3.10449 18.125 3.10449ZM18.125 4.35449C18.2099 4.35449 18.2907 4.37211 18.3645 4.40287L10 11.6525L1.63542 4.40287C1.70927 4.37215 1.79005 4.35449 1.87497 4.35449H18.125ZM18.125 16.8545H1.87501C1.53017 16.8545 1.24999 16.5743 1.24999 16.2295V5.72351L9.59045 12.9519C9.70826 13.0538 9.85413 13.1045 10 13.1045C10.1459 13.1045 10.2917 13.0539 10.4096 12.9519L18.75 5.72351V16.2295C18.75 16.5743 18.4698 16.8545 18.125 16.8545Z" fill="#160B56"/>
</g>
<defs>
<clipPath id="clip0_33:141">
<rect width="20" height="20" fill="white" transform="translate(0 0.604492)"/>
</clipPath>
</defs>
</svg>
