<?xml version="1.0" standalone="no"?>
<!DOCTYPE svg PUBLIC "-//W3C//DTD SVG 20010904//EN"
 "http://www.w3.org/TR/2001/REC-SVG-20010904/DTD/svg10.dtd">
<svg version="1.0" xmlns="http://www.w3.org/2000/svg"
 width="223.000000pt" height="223.000000pt" viewBox="0 0 223.000000 223.000000"
 preserveAspectRatio="xMidYMid meet">
<metadata>
Created by potrace 1.14, written by Peter Selinger 2001-2017
</metadata>
<g transform="translate(0.000000,223.000000) scale(0.100000,-0.100000)"
fill="#000000" stroke="none">
<path d="M250 2111 l0 -79 -90 23 -90 23 0 -556 c1 -556 1 -557 25 -650 45
-173 137 -317 271 -427 73 -60 98 -75 506 -284 l237 -122 188 97 c521 268 517
266 616 366 97 98 170 226 212 373 16 53 18 127 22 632 l5 571 -91 -23 -91
-23 0 80 c0 71 -2 79 -17 74 -10 -3 -70 -18 -133 -35 -63 -16 -202 -53 -309
-81 -193 -52 -195 -52 -275 -42 -78 10 -199 9 -290 -3 -32 -5 -75 2 -158 24
-62 16 -149 40 -193 51 -44 12 -138 37 -208 56 -71 19 -130 34 -133 34 -2 0
-4 -36 -4 -79z m297 -127 l143 -37 -76 -43 c-78 -44 -141 -91 -206 -153 l-38
-35 0 158 c0 145 1 157 18 152 9 -3 81 -21 159 -42z m1298 -104 c0 -82 -2
-150 -5 -150 -3 0 -27 21 -55 46 -56 51 -129 101 -205 143 l-52 28 84 22 c45
12 112 31 148 41 36 10 70 19 75 19 6 1 10 -55 10 -149z m-1594 -444 c0 -276
2 -520 4 -544 6 -65 35 -170 66 -239 15 -35 26 -63 24 -63 -8 0 -82 114 -108
167 -15 28 -36 84 -48 125 -21 70 -22 92 -24 574 l-3 501 44 -10 44 -10 1
-501z m1807 17 c-4 -482 -5 -511 -25 -573 -31 -97 -51 -138 -100 -213 -50 -75
-67 -83 -32 -16 12 24 31 73 42 109 20 62 21 91 25 621 l3 556 37 10 c20 6 41
11 45 12 5 0 7 -227 5 -506z m-1008 247 l0 -201 -52 6 c-60 7 -186 37 -211 51
-14 8 -10 20 28 99 25 50 64 112 87 139 38 44 120 106 140 106 4 0 8 -90 8
-200z m169 180 c21 -10 62 -45 90 -77 52 -58 147 -231 133 -244 -10 -11 -157
-46 -219 -54 l-53 -6 0 200 c0 111 2 201 5 201 3 0 23 -9 44 -20z m-473 -93
c-20 -30 -47 -81 -61 -112 l-25 -57 -40 23 c-22 12 -49 32 -60 45 l-21 21 52
38 c51 36 181 106 187 100 2 -1 -13 -28 -32 -58z m781 19 c45 -25 98 -57 117
-72 40 -32 38 -38 -30 -85 -46 -31 -64 -36 -64 -16 0 17 -67 146 -96 185 -14
17 -21 32 -17 32 4 0 45 -20 90 -44z m-967 -273 c30 -20 56 -37 58 -38 1 -1
-4 -31 -12 -66 -8 -35 -17 -77 -20 -92 -5 -28 -22 -187 -25 -237 -1 -12 -18
-15 -93 -14 l-93 0 -2 220 -2 219 40 48 40 47 27 -26 c15 -13 52 -41 82 -61z
m1250 35 l34 -42 1 -221 0 -220 -75 2 c-41 0 -84 2 -95 2 -17 1 -20 8 -21 44
-1 69 -14 168 -34 268 -11 51 -18 94 -17 94 48 28 85 54 118 81 23 19 44 34
48 34 4 0 23 -19 41 -42z m-902 -174 c41 -8 89 -14 108 -14 l35 0 -3 -147 -3
-147 -179 0 -179 -1 6 90 c5 77 28 213 42 252 3 8 16 8 52 -3 26 -9 81 -22
121 -30z m590 -6 c14 -64 22 -120 31 -217 6 -57 4 -74 -6 -78 -8 -3 -90 -6
-183 -7 l-170 -1 0 148 0 147 38 1 c20 0 46 2 57 5 11 2 38 7 60 10 22 4 65
15 95 25 30 10 58 18 61 18 3 1 11 -23 17 -51z m-940 -433 c3 -2 6 -28 8 -57
6 -74 23 -192 40 -263 18 -80 18 -78 -16 -98 -36 -22 -40 -20 -89 46 -70 96
-112 204 -126 327 l-6 55 92 -2 c50 -2 94 -5 97 -8z m490 -138 l-3 -142 -80
-11 c-75 -11 -169 -33 -207 -49 -13 -5 -19 1 -27 33 -19 69 -31 145 -38 229
l-6 82 144 3 c79 2 161 1 182 -1 l38 -3 -3 -141z m791 96 c-5 -115 -61 -254
-140 -346 l-41 -47 -29 17 c-33 20 -34 25 -15 102 18 70 36 193 40 263 l2 53
90 6 c49 3 90 6 92 7 2 1 2 -24 1 -55z m-312 -25 c-6 -81 -34 -248 -46 -266
-5 -8 -23 -6 -69 8 -35 11 -103 25 -153 32 l-89 12 0 143 0 143 181 0 182 0
-6 -72z m-477 -488 c0 -113 -3 -150 -12 -150 -7 1 -53 22 -103 48 -87 46 -90
49 -122 112 -17 36 -32 70 -32 76 -1 14 162 55 242 62 l27 2 0 -150z m291 124
c106 -24 108 -27 65 -111 l-35 -71 -94 -46 c-52 -25 -97 -46 -101 -46 -3 0 -6
68 -6 151 l0 150 53 -6 c28 -4 82 -13 118 -21z"/>
</g>
</svg>
