<svg width="250" height="47" viewBox="0 0 250 47" fill="none" xmlns="http://www.w3.org/2000/svg">
<path d="M58.4215 19.6049C58.4215 20.4636 58.493 21.2148 58.6361 21.8588C58.7792 22.5028 59.0296 23.0394 59.3516 23.4329C59.6736 23.8265 60.1387 24.1842 60.7111 24.3631C61.2835 24.5777 61.9632 24.6851 62.7503 24.6851C62.9292 24.6851 63.1438 24.6851 63.43 24.6493C63.7163 24.6493 64.0025 24.6135 64.3244 24.5777C64.6464 24.542 64.9684 24.5062 65.2904 24.4346C65.6124 24.3631 65.8986 24.2915 66.1848 24.22L66.6498 26.3308C66.3636 26.4381 66.0059 26.5454 65.6481 26.6527C65.2904 26.7601 64.8968 26.8316 64.4675 26.9032C64.074 26.9747 63.6447 27.0105 63.2512 27.0463C62.8576 27.082 62.4641 27.082 62.0706 27.082C60.7469 27.082 59.6378 26.9032 58.7434 26.5096C57.8491 26.1161 57.1693 25.5795 56.6327 24.9355C56.096 24.2558 55.7383 23.4687 55.5236 22.5743C55.309 21.6799 55.2017 20.714 55.2017 19.6407C55.2017 18.7821 55.309 17.9235 55.4879 17.0291C55.7025 16.1347 56.0603 15.3119 56.5611 14.5606C57.0978 13.8093 57.8133 13.2369 58.7077 12.736C59.6378 12.2709 60.7826 12.0205 62.2137 12.0205C63.0007 12.0205 63.6805 12.0563 64.3244 12.1636C64.9684 12.2709 65.5408 12.414 66.0774 12.5929V16.6713H63.9309V14.489C63.6447 14.4175 63.3585 14.3817 63.0723 14.3459C62.7861 14.3101 62.4999 14.3101 62.2495 14.3101C61.5339 14.3101 60.9258 14.4175 60.4249 14.6679C59.924 14.9183 59.5305 15.2761 59.2085 15.7412C58.8865 16.2063 58.6719 16.7429 58.5288 17.3868C58.493 18.1024 58.4215 18.8179 58.4215 19.6049Z" fill="#160B56"/>
<path d="M78.6347 21.7517C78.6347 22.4672 78.5274 23.147 78.3485 23.7909C78.1338 24.4349 77.8476 25.0073 77.4183 25.5082C76.989 26.009 76.4524 26.4026 75.7727 26.6888C75.0929 26.975 74.2701 27.1181 73.3399 27.1181C72.4098 27.1181 71.6227 26.975 70.9787 26.6888C70.3348 26.4026 69.7981 26.009 69.3688 25.5439C68.9753 25.0789 68.6533 24.5064 68.4744 23.8625C68.2956 23.2185 68.1882 22.503 68.1882 21.7517C68.1882 21.0004 68.2956 20.3207 68.5102 19.6767C68.7249 19.0328 69.0468 18.4604 69.4762 17.9595C69.9055 17.4587 70.4421 17.0651 71.1218 16.7789C71.8016 16.4927 72.5886 16.3496 73.483 16.3496C74.4132 16.3496 75.2002 16.4927 75.88 16.7789C76.5597 17.0651 77.0964 17.4587 77.4899 17.9595C77.8834 18.4604 78.2054 19.0328 78.3843 19.7125C78.5632 20.3923 78.6347 21.0004 78.6347 21.7517ZM75.6296 21.7517C75.6296 21.3582 75.5938 20.9647 75.558 20.5711C75.4865 20.1776 75.3791 19.8198 75.236 19.4979C75.0929 19.1759 74.8783 18.9255 74.5921 18.7466C74.3059 18.5319 73.9481 18.4604 73.5188 18.4604C73.0537 18.4604 72.696 18.5677 72.4097 18.7466C72.1235 18.9255 71.8731 19.1759 71.6942 19.4979C71.5154 19.8198 71.408 20.1776 71.3365 20.5711C71.2649 20.9647 71.2292 21.394 71.2292 21.7875C71.2292 22.2526 71.2649 22.6461 71.3007 23.0396C71.3723 23.4332 71.4796 23.7909 71.6227 24.0771C71.8016 24.3633 72.0162 24.6138 72.3024 24.7927C72.5886 24.9715 72.9822 25.0431 73.4472 25.0431C73.8766 25.0431 74.2343 24.9358 74.5205 24.7569C74.8067 24.578 75.0214 24.3276 75.2003 24.0056C75.3434 23.6836 75.4507 23.3616 75.5222 22.9681C75.5938 22.5746 75.6296 22.181 75.6296 21.7517Z" fill="#160B56"/>
<path d="M81.4252 26.904V18.4252H80.0299V16.5291H84.3587V20.7149H86.0402C86.1118 20.1067 86.2906 19.5343 86.5053 18.9976C86.7199 18.461 87.0777 17.9959 87.4712 17.6024C87.9005 17.2088 88.4014 16.8869 88.9738 16.6722C89.582 16.4218 90.2617 16.3145 91.0488 16.3145C91.9432 16.3145 92.6945 16.4576 93.3026 16.7438C93.9466 17.03 94.4475 17.4235 94.841 17.9244C95.2345 18.4252 95.5207 18.9976 95.7354 19.6774C95.9143 20.3213 96.0216 21.0368 96.0216 21.7523C96.0216 22.4679 95.9143 23.1476 95.7354 23.8273C95.5565 24.4713 95.2345 25.0437 94.841 25.5446C94.4475 26.0454 93.9108 26.4389 93.2669 26.7251C92.6229 27.0114 91.8358 27.1545 90.9057 27.1545C90.0828 27.1545 89.3673 27.0471 88.7591 26.7967C88.151 26.5463 87.6501 26.2243 87.2566 25.7592C86.863 25.3299 86.5411 24.829 86.3622 24.2209C86.1475 23.6484 86.0402 23.0045 85.9686 22.3248H84.323V26.9398H81.4252V26.904ZM93.1238 21.7523C93.1238 21.3588 93.088 20.9653 93.0522 20.5717C92.9807 20.1782 92.9091 19.8205 92.7302 19.4985C92.5871 19.1765 92.3725 18.9261 92.1221 18.7114C91.8716 18.4968 91.5139 18.4252 91.0846 18.4252C90.6553 18.4252 90.2975 18.5325 90.0471 18.7114C89.7966 18.8903 89.5462 19.1765 89.4031 19.4985C89.2242 19.8205 89.1169 20.1782 89.0811 20.5717C89.0096 20.9653 88.9738 21.3946 88.9738 21.7881C88.9738 22.2532 89.0096 22.6467 89.0453 23.0403C89.0811 23.4338 89.1884 23.7915 89.3673 24.0778C89.5104 24.364 89.7251 24.6144 90.0113 24.7933C90.2975 24.9721 90.6553 25.0437 91.1203 25.0437C91.5139 25.0437 91.8716 24.9364 92.1221 24.7575C92.3725 24.5786 92.5871 24.3282 92.7302 24.0062C92.8733 23.72 92.9807 23.3622 93.0522 22.9329C93.088 22.5752 93.1238 22.1459 93.1238 21.7523Z" fill="#160B56"/>
<path d="M101.46 27.1183C101.066 27.1183 100.637 27.0825 100.243 27.0468C99.8498 27.011 99.4562 26.9394 99.0985 26.9037C98.7407 26.8679 98.4187 26.7606 98.0967 26.6532C97.8105 26.5459 97.5601 26.4744 97.3455 26.4028L97.8821 24.5067C98.4545 24.6856 98.9911 24.8287 99.492 24.9002C99.9929 24.9718 100.494 25.0076 100.923 25.0076C102.533 25.0076 103.32 24.5067 103.32 23.4692C103.32 23.2188 103.248 23.0041 103.141 22.8253C103.034 22.6464 102.891 22.539 102.712 22.4317C102.533 22.3244 102.354 22.2886 102.139 22.2528C101.925 22.2171 101.746 22.2171 101.531 22.2171H100.172V20.6429H101.317C101.531 20.6429 101.746 20.6429 101.925 20.6072C102.139 20.5714 102.318 20.4998 102.461 20.4283C102.64 20.3567 102.748 20.2136 102.855 20.0705C102.962 19.9274 102.998 19.7128 102.998 19.4623C102.998 19.1761 102.855 18.8899 102.604 18.6753C102.354 18.4606 101.925 18.3533 101.352 18.3533C101.102 18.3533 100.816 18.3533 100.529 18.3891C100.243 18.4249 99.9571 18.4964 99.6709 18.6037V19.7843H97.7032V17.0654C98.3114 16.815 98.9554 16.6361 99.6709 16.493C100.386 16.3499 101.102 16.2783 101.817 16.2783C103.213 16.2783 104.25 16.5287 104.966 17.0654C105.681 17.5662 106.039 18.246 106.039 19.0688C106.039 19.5697 105.896 20.0348 105.61 20.3925C105.323 20.786 104.93 21.0722 104.429 21.2869V21.3585C105.001 21.5373 105.431 21.8235 105.789 22.2886C106.11 22.7537 106.289 23.2188 106.289 23.7554C106.289 24.7929 105.86 25.6157 105.001 26.2239C104.214 26.7963 102.998 27.1183 101.46 27.1183Z" fill="#160B56"/>
<path d="M117.129 26.9038V24.9004H118.453V14.3823H112.657V24.9361H113.981V26.9396H108.15V24.9361H109.616V14.3823H108.15V12.3789H122.996V14.3823H121.53V24.9361H122.996V26.9396H117.129V26.9038Z" fill="#160B56"/>
<path d="M124.284 29.4081H125.715V18.5323H124.284V16.5646H128.506V17.4948L128.542 17.5306C128.756 17.3517 129.007 17.1728 129.293 17.0297C129.543 16.8866 129.83 16.7793 130.116 16.6719C130.402 16.5646 130.688 16.4931 130.974 16.4573C131.261 16.4215 131.511 16.3857 131.726 16.3857C132.513 16.3857 133.193 16.5288 133.765 16.815C134.302 17.1013 134.731 17.459 135.053 17.9241C135.375 18.3892 135.625 18.9258 135.768 19.5698C135.911 20.178 135.983 20.8577 135.983 21.5732C135.983 22.3603 135.911 23.1116 135.733 23.8271C135.589 24.5068 135.339 25.115 134.981 25.6158C134.624 26.1167 134.158 26.5102 133.586 26.7964C133.014 27.0827 132.334 27.2258 131.511 27.2258C131.153 27.2258 130.724 27.19 130.187 27.0826C129.651 26.9753 129.15 26.8322 128.685 26.5818V29.5154H130.223V31.483H124.284V29.4081ZM130.831 24.9361C131.082 24.9361 131.368 24.9003 131.618 24.793C131.869 24.6857 132.083 24.5426 132.298 24.2922C132.513 24.0417 132.656 23.7197 132.799 23.2547C132.942 22.8254 132.978 22.2529 132.978 21.5374C132.978 20.9292 132.942 20.4284 132.835 20.0349C132.727 19.6413 132.584 19.3551 132.405 19.1405C132.227 18.9258 131.976 18.7827 131.726 18.7112C131.475 18.6396 131.189 18.6038 130.903 18.6038C130.545 18.6038 130.152 18.6754 129.722 18.8543C129.293 19.0331 128.971 19.212 128.721 19.3909V24.3279C128.971 24.471 129.293 24.6141 129.722 24.7572C130.044 24.9003 130.438 24.9361 130.831 24.9361Z" fill="#160B56"/>
<path d="M148.004 21.7517C148.004 22.4672 147.896 23.147 147.718 23.7909C147.503 24.4349 147.217 25.0073 146.787 25.5082C146.358 26.009 145.821 26.4026 145.142 26.6888C144.462 26.975 143.639 27.1181 142.709 27.1181C141.779 27.1181 140.992 26.975 140.348 26.6888C139.704 26.4026 139.167 26.009 138.738 25.5439C138.344 25.0789 138.022 24.5064 137.843 23.8625C137.665 23.2185 137.557 22.503 137.557 21.7517C137.557 21.0004 137.665 20.3207 137.879 19.6767C138.094 19.0328 138.416 18.4604 138.845 17.9595C139.274 17.4587 139.811 17.0651 140.491 16.7789C141.171 16.4927 141.958 16.3496 142.852 16.3496C143.782 16.3496 144.569 16.4927 145.249 16.7789C145.929 17.0651 146.465 17.4587 146.859 17.9595C147.252 18.4604 147.574 19.0328 147.753 19.7125C147.932 20.3923 148.004 21.0004 148.004 21.7517ZM144.999 21.7517C144.999 21.3582 144.963 20.9647 144.927 20.5711C144.855 20.1776 144.748 19.8198 144.605 19.4979C144.462 19.1759 144.247 18.9255 143.961 18.7466C143.675 18.5319 143.317 18.4604 142.888 18.4604C142.423 18.4604 142.065 18.5677 141.779 18.7466C141.493 18.9255 141.242 19.1759 141.063 19.4979C140.884 19.8198 140.777 20.1776 140.706 20.5711C140.634 20.9647 140.598 21.394 140.598 21.7875C140.598 22.2526 140.634 22.6461 140.67 23.0396C140.741 23.4332 140.849 23.7909 140.992 24.0771C141.171 24.3633 141.385 24.6138 141.671 24.7927C141.958 24.9715 142.351 25.0431 142.816 25.0431C143.246 25.0431 143.603 24.9358 143.89 24.7569C144.176 24.578 144.39 24.3276 144.569 24.0056C144.712 23.6836 144.82 23.3616 144.891 22.9681C144.963 22.5746 144.999 22.181 144.999 21.7517Z" fill="#160B56"/>
<path d="M153.978 29.5152H155.445V27.1182C154.372 27.0825 153.442 26.9036 152.726 26.5816C151.975 26.2596 151.402 25.8661 150.973 25.3652C150.544 24.8644 150.222 24.292 150.007 23.6838C149.828 23.0756 149.721 22.4316 149.721 21.7519C149.721 20.9648 149.864 20.2493 150.114 19.6054C150.365 18.9614 150.723 18.389 151.224 17.9239C151.724 17.4588 152.297 17.0653 153.012 16.7791C153.728 16.4929 154.551 16.3498 155.445 16.314V13.6308H153.978V11.7705H158.307V16.314C159.237 16.314 160.096 16.4571 160.811 16.7433C161.527 16.9937 162.135 17.3515 162.6 17.8166C163.101 18.2817 163.459 18.8183 163.709 19.4623C163.96 20.1062 164.067 20.8217 164.067 21.573C164.067 22.3601 163.96 23.0756 163.709 23.7196C163.459 24.3635 163.101 24.9717 162.636 25.4368C162.171 25.9376 161.563 26.2954 160.847 26.6174C160.132 26.9394 159.273 27.0467 158.343 27.0825V29.4794H159.917V31.3755H154.014V29.5152H153.978ZM155.445 18.3174C154.908 18.3532 154.479 18.4605 154.121 18.6394C153.764 18.8183 153.442 19.0687 153.227 19.3907C152.977 19.6769 152.833 20.0347 152.726 20.464C152.619 20.8575 152.583 21.2868 152.583 21.7519C152.583 22.7894 152.798 23.648 153.263 24.2562C153.728 24.8644 154.443 25.1864 155.481 25.2221V18.3174H155.445ZM158.307 25.1506C159.273 25.1148 159.989 24.7928 160.489 24.1846C160.99 23.5765 161.241 22.7536 161.241 21.7519C161.241 21.2868 161.205 20.8575 161.098 20.4282C160.99 20.0347 160.847 19.6769 160.633 19.3549C160.418 19.0687 160.096 18.8183 159.738 18.6036C159.38 18.4248 158.88 18.3174 158.343 18.2817V25.1506H158.307Z" fill="#160B56"/>
<path d="M173.869 20.2854C173.082 20.2854 172.259 20.3212 171.437 20.3212C170.614 20.3212 169.827 20.3569 169.004 20.3569V18.3893L173.834 18.4608C173.798 17.2445 173.512 16.2427 172.939 15.4915C172.367 14.7402 171.437 14.3824 170.184 14.3824C169.862 14.3824 169.54 14.4182 169.147 14.454C168.789 14.4897 168.467 14.5613 168.253 14.5971V16.5289H166.106V12.701C166.643 12.5221 167.251 12.379 167.966 12.2717C168.682 12.1643 169.433 12.0928 170.184 12.0928C171.58 12.0928 172.689 12.3074 173.583 12.701C174.477 13.1303 175.157 13.6669 175.694 14.3466C176.23 15.0264 176.552 15.8134 176.731 16.672C176.91 17.5307 177.018 18.4608 177.018 19.3552C177.018 20.3569 176.91 21.2871 176.66 22.2173C176.409 23.1474 176.016 23.9703 175.479 24.6858C174.943 25.4013 174.191 25.9737 173.297 26.403C172.402 26.8323 171.293 27.047 169.97 27.047C169.218 27.047 168.467 26.9754 167.644 26.8681C166.857 26.7608 166.142 26.5819 165.534 26.3315C165.605 25.9737 165.677 25.6159 165.784 25.2582C165.856 24.9004 165.963 24.5785 166.034 24.2207C166.285 24.2923 166.607 24.3638 166.893 24.3996C167.215 24.4354 167.501 24.5069 167.823 24.5427C168.145 24.5785 168.396 24.6142 168.682 24.65C168.932 24.6858 169.183 24.6858 169.362 24.6858C170.864 24.6858 171.973 24.2923 172.689 23.5052C173.512 22.7539 173.869 21.6806 173.869 20.2854Z" fill="#160B56"/>
<path d="M178.771 25.0076H180.059V18.4249H178.628V16.5645H182.992V25.0433H184.173V26.9394H178.807V25.0076H178.771ZM188.824 25.0433L190.183 25.258V26.7248C189.897 26.8321 189.575 26.9394 189.181 26.9752C188.788 27.0468 188.466 27.0825 188.216 27.0825C187.75 27.0825 187.393 27.011 187.142 26.9037C186.892 26.7963 186.641 26.5817 186.427 26.2955L183.279 21.8593V21.2154L186.248 17.2085C186.463 16.8865 186.713 16.6361 186.963 16.493C187.214 16.3499 187.536 16.2783 187.965 16.2783C188.287 16.2783 188.609 16.3141 188.967 16.4214C189.325 16.493 189.611 16.6003 189.861 16.7434L189.718 18.2818L188.538 18.3533L186.105 21.3227L188.824 25.0433Z" fill="#160B56"/>
<path d="M196.802 16.3145C197.374 16.3145 197.947 16.3502 198.519 16.4576C199.091 16.5291 199.592 16.6722 200.093 16.8511V19.9993H198.09V18.6041C197.696 18.5325 197.374 18.4968 197.088 18.4968C196.194 18.4968 195.55 18.783 195.12 19.3554C194.691 19.9278 194.512 20.7149 194.512 21.7881C194.512 22.9687 194.727 23.7916 195.192 24.2566C195.657 24.7575 196.301 24.9722 197.088 24.9722C197.589 24.9722 198.09 24.9364 198.591 24.8291C199.091 24.7217 199.557 24.6144 199.986 24.4355L200.522 26.2959C200.057 26.5463 199.449 26.7252 198.769 26.8683C198.054 27.0114 197.374 27.0829 196.659 27.0829C195.657 27.0829 194.834 26.9398 194.154 26.6536C193.51 26.3674 192.974 26.0096 192.616 25.5088C192.223 25.0437 191.972 24.4713 191.829 23.8273C191.686 23.1834 191.579 22.5036 191.579 21.7881C191.579 21.1799 191.65 20.536 191.793 19.892C191.936 19.2481 192.187 18.6399 192.58 18.1032C192.974 17.5666 193.475 17.1373 194.154 16.7795C194.834 16.4933 195.729 16.3145 196.802 16.3145Z" fill="#160B56"/>
<path d="M205.996 18.5325V26.9397H203.098V18.5325H201.703V16.6006H214.26V18.5325H212.829V24.9363H214.331V26.6535C213.974 26.7966 213.58 26.9397 213.115 27.0113C212.65 27.0828 212.292 27.1186 211.934 27.1186C211.505 27.1186 211.147 27.0828 210.861 26.9755C210.575 26.8682 210.396 26.7251 210.253 26.5462C210.11 26.3673 210.003 26.1527 209.931 25.9022C209.859 25.6518 209.859 25.4014 209.859 25.0794V18.5325H205.996Z" fill="#160B56"/>
<path d="M220.735 16.2783C221.737 16.2783 222.524 16.4572 223.132 16.7792C223.74 17.1012 224.206 17.5305 224.492 18.0313C224.778 18.5322 225.028 19.0688 225.1 19.677C225.207 20.2852 225.243 20.8218 225.243 21.3585V22.4317H218.589C218.589 23.2903 218.768 23.9701 219.125 24.3636C219.519 24.7929 220.199 25.0076 221.165 25.0076C221.701 25.0076 222.238 24.936 222.775 24.8287C223.311 24.7214 223.812 24.5425 224.349 24.3278L224.993 26.1166C224.313 26.4744 223.597 26.7606 222.882 26.9037C222.166 27.0468 221.415 27.1541 220.7 27.1541C219.662 27.1541 218.839 27.011 218.159 26.689C217.48 26.367 216.979 25.9735 216.621 25.4726C216.228 24.9718 215.977 24.3994 215.834 23.7554C215.691 23.1115 215.619 22.4317 215.619 21.752C215.619 21.1796 215.691 20.5714 215.834 19.9274C215.977 19.2835 216.263 18.6753 216.621 18.1387C217.015 17.602 217.515 17.1369 218.159 16.7792C218.911 16.4572 219.734 16.2783 220.735 16.2783ZM220.7 18.3533C220.342 18.3533 220.056 18.4249 219.805 18.568C219.555 18.7111 219.34 18.8542 219.161 19.0688C218.982 19.2835 218.875 19.5339 218.768 19.7843C218.696 20.0348 218.625 20.321 218.625 20.6072H222.524C222.524 20.321 222.488 20.0348 222.417 19.7486C222.345 19.4623 222.238 19.2477 222.131 19.033C221.987 18.8184 221.809 18.6753 221.558 18.5322C221.379 18.4249 221.057 18.3533 220.7 18.3533Z" fill="#160B56"/>
<path d="M226.495 29.4081H227.926V18.5323H226.495V16.5646H230.717V17.4948L230.753 17.5306C230.967 17.3517 231.218 17.1728 231.504 17.0297C231.754 16.8866 232.041 16.7793 232.327 16.6719C232.613 16.5646 232.899 16.4931 233.185 16.4573C233.472 16.4215 233.722 16.3857 233.937 16.3857C234.724 16.3857 235.403 16.5288 235.976 16.815C236.513 17.1013 236.942 17.459 237.264 17.9241C237.586 18.3892 237.836 18.9258 237.979 19.5698C238.122 20.178 238.194 20.8577 238.194 21.5732C238.194 22.3603 238.122 23.1116 237.944 23.8271C237.8 24.5068 237.55 25.115 237.192 25.6158C236.835 26.1167 236.369 26.5102 235.797 26.7964C235.225 27.0827 234.545 27.2258 233.722 27.2258C233.364 27.2258 232.935 27.19 232.398 27.0826C231.862 26.9753 231.361 26.8322 230.896 26.5818V29.5154H232.434V31.483H226.495V29.4081ZM233.042 24.9361C233.293 24.9361 233.579 24.9003 233.829 24.793C234.08 24.6857 234.294 24.5426 234.509 24.2922C234.724 24.0417 234.867 23.7197 235.01 23.2547C235.153 22.8254 235.189 22.2529 235.189 21.5374C235.189 20.9292 235.153 20.4284 235.046 20.0349C234.938 19.6413 234.795 19.3551 234.616 19.1405C234.438 18.9258 234.187 18.7827 233.937 18.7112C233.686 18.6396 233.4 18.6038 233.114 18.6038C232.756 18.6038 232.363 18.6754 231.933 18.8543C231.504 19.0331 231.182 19.212 230.932 19.3909V24.3279C231.182 24.471 231.504 24.6141 231.933 24.7572C232.255 24.9003 232.649 24.9361 233.042 24.9361Z" fill="#160B56"/>
<path d="M241.843 25.0075H243.203V18.4248H241.307V19.9274H239.339V16.5645H250V19.9274H248.032V18.4248H246.136V25.0433H247.567V26.9394H241.807V25.0075H241.843Z" fill="#160B56"/>
<path d="M150.401 40.4983C150.401 41.4643 150.15 42.1798 149.685 42.7522C149.22 43.2888 148.54 43.575 147.682 43.575C146.823 43.575 146.143 43.3246 145.642 42.788C145.142 42.2513 144.927 41.5 144.927 40.5341C144.927 39.5681 145.177 38.8169 145.642 38.2802C146.107 37.7436 146.787 37.4932 147.682 37.4932C148.54 37.4932 149.22 37.7794 149.685 38.316C150.15 38.7811 150.401 39.5324 150.401 40.4983ZM145.714 40.4983C145.714 41.2854 145.893 41.8936 146.215 42.2871C146.537 42.6806 147.038 42.8953 147.682 42.8953C148.326 42.8953 148.791 42.6806 149.148 42.2871C149.47 41.8936 149.649 41.2854 149.649 40.4983C149.649 39.7113 149.47 39.1031 149.148 38.7095C148.826 38.316 148.326 38.1014 147.717 38.1014C147.073 38.1014 146.573 38.316 146.251 38.7095C145.929 39.1031 145.714 39.7113 145.714 40.4983Z" fill="#160B56"/>
<path d="M156.59 42.8231H157.305V45.0412H156.59V43.4671H152.118V37.5283H152.869V42.7873H155.838V37.5283H156.59V42.8231Z" fill="#160B56"/>
<path d="M162.028 43.4671H158.7V37.5283H162.028V38.1723H159.452V40.0326H161.884V40.6766H159.452V42.7873H162.028V43.4671Z" fill="#160B56"/>
<path d="M168.288 43.4671H167.537V40.7123H164.496V43.4671H163.745V37.5283H164.496V40.0326H167.537V37.5283H168.288V43.4671Z" fill="#160B56"/>
<path d="M174.656 43.4671H173.762L171.079 40.4619V43.4671H170.328V37.5283H171.079V40.3904L173.691 37.5283H174.549L171.973 40.4261L174.656 43.4671Z" fill="#160B56"/>
<path d="M179.593 43.4667L178.878 41.6422H176.552L175.837 43.4667H175.086L177.411 37.4922H178.091L180.416 43.4667H179.593ZM178.663 40.9624L177.984 39.1736L177.697 38.2793C177.626 38.6012 177.518 38.8874 177.447 39.1736L176.767 40.9624H178.663Z" fill="#160B56"/>
<path d="M184.209 37.5283H184.924V40.7839C184.924 40.9985 184.924 41.3205 184.888 41.7141C184.853 42.1076 184.853 42.3222 184.853 42.4653H184.888L188.144 37.5641H188.967V43.5028H188.251V40.283C188.251 39.9968 188.251 39.6749 188.287 39.2813C188.323 38.9236 188.323 38.6731 188.323 38.5658H188.287L185.032 43.5028H184.209V37.5283Z" fill="#160B56"/>
<path d="M194.691 38.101C194.226 38.101 193.796 38.2083 193.331 38.423L193.009 37.8148C193.474 37.5644 194.047 37.457 194.691 37.457C195.263 37.457 195.8 37.5644 196.193 37.8148C196.623 38.0652 196.945 38.3872 197.159 38.8165C197.374 39.2458 197.481 39.7824 197.481 40.3906C197.481 41.3923 197.231 42.1794 196.73 42.716C196.229 43.2527 195.514 43.5389 194.619 43.5389C194.297 43.5389 194.047 43.5389 193.796 43.5031C193.546 43.4673 193.295 43.3958 193.045 43.3242V42.6803C193.295 42.7518 193.51 42.7876 193.761 42.8591C194.011 42.9307 194.261 42.9307 194.512 42.9307C195.227 42.9307 195.764 42.7518 196.122 42.3583C196.48 41.9647 196.694 41.4281 196.694 40.7126H193.796V40.0686H196.658C196.587 39.4605 196.408 38.9954 196.05 38.6376C195.728 38.2799 195.263 38.101 194.691 38.101Z" fill="#160B56"/>
<path d="M203.563 43.4671H202.669L199.986 40.4619V43.4671H199.234V37.5283H199.986V40.3904L202.597 37.5283H203.456L200.88 40.4261L203.563 43.4671Z" fill="#160B56"/>
<path d="M207.248 38.1006C206.604 38.1006 206.103 38.3153 205.746 38.7446C205.388 39.1739 205.209 39.7463 205.209 40.4976C205.209 41.2489 205.388 41.8571 205.746 42.2864C206.103 42.7157 206.604 42.8946 207.248 42.8946C207.678 42.8946 208.143 42.823 208.679 42.6441V43.2881C208.429 43.3954 208.178 43.4312 207.964 43.467C207.749 43.5028 207.463 43.5028 207.177 43.5028C206.318 43.5028 205.638 43.2523 205.173 42.7157C204.708 42.1791 204.458 41.4278 204.458 40.4618C204.458 39.8536 204.565 39.317 204.78 38.8519C204.994 38.3868 205.352 38.0291 205.781 37.7787C206.211 37.5282 206.712 37.4209 207.32 37.4209C207.964 37.4209 208.5 37.5282 208.965 37.7787L208.679 38.4226C208.143 38.208 207.678 38.1006 207.248 38.1006Z" fill="#160B56"/>
<path d="M214.832 43.4671H214.117V38.1723H211.147V43.4671H210.396V37.5283H214.832V43.4671Z" fill="#160B56"/>
<path d="M220.199 43.4671H216.872V37.5283H220.199V38.1723H217.623V40.0326H220.056V40.6766H217.623V42.7873H220.199V43.4671Z" fill="#160B56"/>
<path d="M225.744 39.2813C225.744 39.8895 225.529 40.3546 225.136 40.6766C224.742 40.9985 224.134 41.1774 223.383 41.1774H222.703V43.5028H221.952V37.5641H223.526C224.993 37.5283 225.744 38.1007 225.744 39.2813ZM222.667 40.5334H223.275C223.848 40.5334 224.277 40.4261 224.563 40.2472C224.814 40.0684 224.957 39.7464 224.957 39.3171C224.957 38.9236 224.849 38.6373 224.599 38.4585C224.349 38.2796 223.955 38.1723 223.454 38.1723H222.703V40.5334H222.667Z" fill="#160B56"/>
<path d="M229.25 43.4671H228.499V38.1723H226.639V37.5283H231.075V38.1723H229.215V43.4671H229.25Z" fill="#160B56"/>
<path d="M232.434 37.5283H233.15V40.7839C233.15 40.9985 233.15 41.3205 233.114 41.7141C233.078 42.1076 233.078 42.3222 233.078 42.4653H233.114L236.369 37.5641H237.192V43.5028H236.477V40.283C236.477 39.9968 236.477 39.6749 236.512 39.2813C236.548 38.9236 236.548 38.6731 236.548 38.5658H236.512L233.257 43.5028H232.434V37.5283Z" fill="#160B56"/>
<path d="M242.738 38.9238C242.738 39.3174 242.63 39.6393 242.38 39.854C242.13 40.1044 241.772 40.2475 241.342 40.3191V40.3548C241.843 40.4264 242.237 40.5695 242.487 40.8199C242.738 41.0704 242.881 41.3923 242.881 41.7859C242.881 42.3583 242.666 42.7876 242.237 43.0738C241.808 43.36 241.235 43.5389 240.484 43.5389C239.768 43.5389 239.196 43.4315 238.767 43.2169V42.5372C239.017 42.6803 239.339 42.7518 239.625 42.8234C239.947 42.8949 240.233 42.9307 240.484 42.9307C241.02 42.9307 241.414 42.8234 241.7 42.6445C241.986 42.4298 242.094 42.1794 242.094 41.7859C242.094 41.4281 241.951 41.1777 241.629 40.963C241.307 40.7842 240.877 40.6768 240.269 40.6768H239.411V40.0686H240.198C240.77 40.0686 241.235 39.9613 241.521 39.7824C241.808 39.6036 241.951 39.3174 241.951 38.9954C241.951 38.7092 241.843 38.4945 241.629 38.3156C241.414 38.1368 241.128 38.0652 240.77 38.0652C240.448 38.0652 240.198 38.101 239.947 38.1725C239.697 38.2441 239.411 38.3872 239.124 38.5661L238.767 38.0652C239.339 37.6359 240.019 37.457 240.77 37.457C241.378 37.457 241.843 37.6001 242.201 37.8506C242.559 38.101 242.738 38.4587 242.738 38.9238Z" fill="#160B56"/>
<path d="M248.247 43.4667L247.532 41.6422H245.17L244.455 43.4667H243.704L246.029 37.4922H246.709L249.034 43.4667H248.247ZM247.317 40.9624L246.637 39.1736L246.351 38.2793C246.279 38.6012 246.172 38.8874 246.101 39.1736L245.421 40.9624H247.317Z" fill="#160B56"/>
<path d="M140.455 34.7021H139.024V45.4706H140.455V34.7021Z" fill="#48CFE5"/>
<path d="M13.3085 39.3885C8.40729 36.9558 5.22327 31.7683 5.22327 26.1873V1.7168L22.2524 6.22452L39.2816 1.7168V26.1873C39.2816 31.7683 36.0976 36.9558 31.1963 39.3885L22.2524 43.8247L13.3085 39.3885Z" fill="white"/>
<path d="M37.9938 12.4147C34.3804 7.69229 28.6921 4.65137 22.2525 4.65137C15.8129 4.65137 10.1603 7.69229 6.51123 12.4147V26.1525C6.51123 31.2684 9.37328 35.955 13.881 38.1731L22.2525 42.3231L30.624 38.1731C35.1317 35.955 37.9938 31.2684 37.9938 26.1525V12.4147Z" fill="white"/>
<path d="M42.0005 3.0767L40.6053 3.43446V0L37.2782 0.89439L22.9679 4.6866C25.0429 4.75815 27.0463 5.15169 28.9425 5.83142L37.9579 3.43446V12.4141V26.152C37.9579 27.7619 37.6717 29.3002 37.1708 30.767C36.9562 31.3394 36.7058 31.9118 36.4196 32.4485C35.2747 34.6308 33.5575 36.4553 31.411 37.7433C31.1605 37.8864 30.8743 38.0652 30.5881 38.1726L25.0429 40.9273L22.2166 42.3225L15.9559 39.2458L13.8452 38.2083C13.5589 38.0652 13.2727 37.9221 13.0223 37.779C12.7719 37.6359 12.4857 37.4571 12.2353 37.2782C11.7344 36.9204 11.2335 36.5269 10.8042 36.1334C10.1245 35.5252 9.51631 34.8097 8.97967 34.0584C7.36977 31.8045 6.47538 29.0856 6.47538 26.1877V3.43446L15.5624 5.83142C17.4227 5.15169 19.4261 4.75815 21.5369 4.6866L7.22667 0.89439L3.89954 0V3.43446L2.50429 3.0767L0 2.43274V5.00858V23.9697C0 30.5166 3.61334 36.4553 9.44476 39.4605L21.3223 45.5781L22.2166 46.0432L23.111 45.5781L34.9885 39.4605C40.82 36.4553 44.4333 30.5166 44.4333 23.9697V5.00858V2.43274L42.0005 3.0767ZM2.00343 23.9697V5.00858L3.89954 5.50944V26.1877C3.89954 29.1929 4.75815 32.0907 6.26073 34.595C3.57756 31.7687 2.00343 27.9765 2.00343 23.9697ZM42.5372 23.9697C42.5372 27.9765 40.9631 31.7687 38.3157 34.595C39.8182 32.1265 40.6769 29.1929 40.6769 26.1877V5.47367L42.573 4.97281V23.9697H42.5372Z" fill="#160B56"/>
<path d="M14.8827 41.6426L14.9183 41.7138L14.9896 41.6782L14.8827 41.6426Z" fill="#48CFE5"/>
<path d="M29.5507 41.6782L29.6219 41.7138L29.6576 41.6426L29.5507 41.6782Z" fill="#48CFE5"/>
<path d="M6.54675 10.1245V14.2745L7.19071 13.4159C7.47692 13.0223 7.7989 12.6288 8.15665 12.271C9.22992 13.3085 10.4463 14.2029 11.8058 14.9184C11.0545 17.5658 10.6252 20.4994 10.5536 23.6477H6.54675V26.1878C6.54675 26.2235 6.54675 26.2593 6.54675 26.2951H10.5536C10.6609 29.336 11.126 32.2696 11.8773 34.9528C11.3765 35.2032 10.9114 35.4894 10.4821 35.7756C11.126 36.4196 11.8773 37.0278 12.6644 37.5286C12.7002 37.5286 12.7002 37.4928 12.7359 37.4928C12.7359 37.5286 12.7717 37.5644 12.7717 37.6359C13.1295 37.8506 13.4872 38.0653 13.8807 38.2441L16.7428 39.6394L16.5281 39.2458C16.0273 38.3872 15.5622 37.3855 15.1329 36.348C16.9217 35.6683 18.8893 35.2748 20.9285 35.1316V41.6786L22.2522 42.3225L23.5759 41.6786V35.1316C25.6151 35.239 27.5828 35.6683 29.3716 36.348C28.9781 37.3855 28.513 38.3515 27.9763 39.2458L27.7617 39.6394L30.6237 38.2441C31.0173 38.0653 31.375 37.8506 31.7328 37.6359C31.7328 37.6002 31.7685 37.5644 31.7685 37.4928C31.8043 37.4928 31.8043 37.5286 31.8401 37.5286C32.6272 37.0278 33.3784 36.4196 34.0224 35.7756C33.5573 35.4894 33.0922 35.2032 32.6272 34.9528C33.3784 32.3054 33.8435 29.3718 33.9509 26.2951H37.9577C37.9577 26.2593 37.9577 26.2235 37.9577 26.1878V23.6477H33.9509C33.8793 20.4994 33.4142 17.5658 32.6987 14.9542C34.0582 14.2029 35.3103 13.3085 36.3478 12.3068C36.6698 12.6646 36.9918 13.0581 37.3138 13.4516L37.9577 14.3103V10.1245C33.8793 5.79566 28.2625 3.32715 22.2165 3.32715C16.1704 3.32715 10.6252 5.79566 6.54675 10.1245ZM34.4875 10.4465C33.7362 11.162 32.8418 11.806 31.8759 12.3784C31.1246 10.3749 30.1586 8.65771 29.0854 7.26246C31.053 8.01375 32.8776 9.08702 34.4875 10.4465ZM23.5759 6.1892C25.9371 6.94048 28.0479 9.65943 29.4789 13.5232C27.6544 14.2029 25.6509 14.668 23.5759 14.7753V6.1892ZM23.5759 17.4227C25.9371 17.2796 28.2268 16.8145 30.266 16.0633C30.8742 18.3529 31.2319 20.9287 31.3392 23.6477H23.5759V17.4227ZM23.5759 26.2951H31.3035C31.1961 28.9782 30.8026 31.5183 30.1586 33.8437C28.1194 33.0924 25.8656 32.6274 23.5402 32.4843V26.2951H23.5759ZM20.9643 32.4843C18.6389 32.6274 16.385 33.0567 14.3458 33.8437C13.7019 31.5183 13.3083 28.9425 13.201 26.2951H20.9285V32.4843H20.9643ZM20.9643 23.6477H13.201C13.2726 20.9287 13.6661 18.3529 14.2743 16.0633C16.3493 16.8503 18.6031 17.3154 20.9643 17.4227V23.6477ZM20.9643 6.1892V14.7753C18.8893 14.6322 16.8859 14.2029 15.0613 13.5232C16.4566 9.65943 18.5674 6.94048 20.9643 6.1892ZM15.4191 7.22669C14.3458 8.62194 13.3799 10.3749 12.6286 12.3426C11.6627 11.7702 10.7683 11.1262 10.017 10.4107C11.6627 9.08702 13.4872 8.01375 15.4191 7.22669Z" fill="#48CFE5"/>
</svg>
